<svg xmlns="http://www.w3.org/2000/svg" width="256" height="256" viewBox="0 0 256 256">
  <defs>
    <linearGradient id="bg" x1="0" y1="0" x2="1" y2="1">
      <stop offset="0" stop-color="#1e3a8a"/>
      <stop offset="1" stop-color="#0ea5e9"/>
    </linearGradient>
  </defs>
  <rect x="8" y="8" width="240" height="240" rx="44" fill="url(#bg)"/>
  <!-- three "river" waves -->
  <path d="M28 150 q24 -26 48 0 t48 0 t48 0 t48 0" fill="none" stroke="#bae6fd" stroke-width="9" stroke-linecap="round"/>
  <path d="M28 184 q24 -26 48 0 t48 0 t48 0 t48 0" fill="none" stroke="#7dd3fc" stroke-width="9" stroke-linecap="round" opacity="0.85"/>
  <path d="M28 218 q24 -26 48 0 t48 0 t48 0 t48 0" fill="none" stroke="#38bdf8" stroke-width="9" stroke-linecap="round" opacity="0.7"/>
  <!-- code brackets -->
  <path d="M96 58 L66 92 L96 126" fill="none" stroke="#f8fafc" stroke-width="12" stroke-linecap="round" stroke-linejoin="round"/>
  <path d="M160 58 L190 92 L160 126" fill="none" stroke="#f8fafc" stroke-width="12" stroke-linecap="round" stroke-linejoin="round"/>
  <circle cx="128" cy="92" r="9" fill="#fbbf24"/>
</svg>
